<?xml version="1.0" ?><svg enable-background="new 0 0 64 64" id="Layer_1" version="1.1" viewBox="0 0 64 64" xml:space="preserve" xmlns="http://www.w3.org/2000/svg" xmlns:xlink="http://www.w3.org/1999/xlink"><g><path d="M20.803,63h22.395c5.145,0,9.331-4.186,9.331-9.331H11.472C11.472,58.814,15.657,63,20.803,63z"/><path d="M32,40.813c-2.401,0-4.355-1.954-4.355-4.355c0-0.864,0.253-1.699,0.73-2.415L32,28.62l3.624,5.424   c0.478,0.715,0.73,1.55,0.73,2.415C36.355,38.859,34.401,40.813,32,40.813z"/><path d="M52.528,51.461v-26.2c0-4.506-3.211-8.276-7.465-9.143V4.732h1.866c1.03,0,1.866-0.835,1.866-1.866   C48.796,1.835,47.96,1,46.93,1h-3.732H20.803H17.07c-1.03,0-1.866,0.835-1.866,1.866c0,1.031,0.836,1.866,1.866,1.866h1.866v11.385   c-4.254,0.867-7.465,4.637-7.465,9.143v26.2H52.528z M32,44.545c-4.459,0-8.087-3.628-8.087-8.087c0-1.605,0.47-3.157,1.36-4.488   l5.176-7.746c0.692-1.036,2.411-1.036,3.103,0l5.176,7.746c0.889,1.332,1.359,2.884,1.359,4.489   C40.087,40.917,36.459,44.545,32,44.545z M22.669,4.732h18.662V15.93h-7.465v-3.732h1.866c1.03,0,1.866-0.835,1.866-1.866   c0-1.031-0.836-1.866-1.866-1.866h-7.465c-1.03,0-1.866,0.835-1.866,1.866c0,1.031,0.836,1.866,1.866,1.866h1.866v3.732h-7.465   V4.732z"/></g></svg>