<?xml version="1.0" ?><!DOCTYPE svg  PUBLIC '-//W3C//DTD SVG 1.1//EN'  'http://www.w3.org/Graphics/SVG/1.1/DTD/svg11.dtd'><svg enable-background="new 0 0 128 128" height="128px" id="Layer_1" version="1.1" viewBox="0 0 128 128" width="128px" xml:space="preserve" xmlns="http://www.w3.org/2000/svg" xmlns:xlink="http://www.w3.org/1999/xlink"><g><g><path d="M15.706,21.481l21.402,10.464c1.53,0.748,3.692,1.176,5.932,1.176s4.402-0.429,5.931-1.176l21.403-10.464    c1.158-0.566,1.878-1.284,1.878-1.874c0-0.432-0.389-0.932-1.049-1.391c-0.044-0.029-0.088-0.061-0.133-0.089    c-0.059-0.038-0.119-0.076-0.182-0.113c-0.161-0.097-0.329-0.191-0.514-0.282L48.971,7.268c-1.529-0.748-3.691-1.176-5.931-1.176    s-4.402,0.429-5.932,1.176L15.706,17.733c-0.172,0.084-0.342,0.179-0.51,0.279c-0.066,0.04-0.131,0.08-0.192,0.12    c-0.042,0.026-0.082,0.054-0.123,0.082c-0.663,0.459-1.052,0.961-1.052,1.393C13.828,20.197,14.547,20.915,15.706,21.481z"/><path d="M50.289,34.64c-3.116,1.523-5.749,5.741-5.749,9.209v9.458l14.292,6.987v-9.348v-0.001c0-0.256,0.012-0.506,0.032-0.75    c0.29-3.962,2.817-8.193,6.161-10.43c0.122-0.085,0.25-0.169,0.385-0.252c0.049-0.03,0.097-0.06,0.146-0.088    c0.221-0.131,0.452-0.26,0.708-0.385l9.86-4.821v-7.276c0,0,0,0,0-0.001c0-0.001,0-0.003,0-0.004    c-0.001-2.056-0.92-3.283-2.459-3.283c-0.595,0-1.277,0.18-1.974,0.52L50.289,34.64z"/><path d="M25.834,51.251c1.954-0.955,4.528-1.481,7.249-1.481s5.295,0.526,7.249,1.481l1.208,0.59V43.85    c0-3.469-2.633-7.687-5.75-9.209L14.388,24.176c-0.706-0.345-1.37-0.52-1.973-0.52c-1.539,0-2.458,1.227-2.459,3.283    c0,0.001,0,0.002,0,0.004c0,0,0,0,0,0.001v28.093c0,1.155,0.297,2.392,0.801,3.586L25.834,51.251z"/><path d="M122.25,45.484c1.158-0.566,1.878-1.284,1.878-1.874c0-0.433-0.39-0.933-1.051-1.393    c-0.042-0.028-0.084-0.057-0.126-0.084c-0.062-0.04-0.125-0.079-0.19-0.118c-0.169-0.1-0.339-0.196-0.511-0.28l-21.403-10.464    c-1.528-0.748-3.69-1.176-5.931-1.176s-4.402,0.429-5.933,1.176L67.582,41.736c-0.172,0.084-0.342,0.18-0.511,0.28    c-0.065,0.039-0.128,0.078-0.189,0.118c-0.043,0.027-0.085,0.057-0.127,0.085c-0.662,0.459-1.051,0.96-1.051,1.392    c0,0.59,0.72,1.308,1.877,1.874l21.403,10.463c1.529,0.748,3.691,1.177,5.932,1.177s4.401-0.429,5.931-1.177L122.25,45.484z"/><path d="M125.541,47.66c-0.604,0-1.267,0.175-1.974,0.52l-21.402,10.463c-3.116,1.523-5.749,5.741-5.749,9.209v28.094    c0,2.058,0.919,3.287,2.459,3.287c0.595,0,1.276-0.181,1.972-0.521L122.25,88.25c3.117-1.523,5.75-5.74,5.75-9.21V50.947    c0,0,0,0,0-0.001c0-0.001,0-0.002,0-0.004C127.998,48.887,127.08,47.66,125.541,47.66z"/><path d="M87.666,58.643L66.264,48.18c-0.706-0.345-1.369-0.52-1.973-0.52c-1.539,0-2.458,1.227-2.459,3.283    c0,0.001,0,0.003,0,0.004c0,0,0,0,0,0.001v10.818c0.218,0.109,0.421,0.222,0.613,0.335c0.048,0.028,0.095,0.058,0.143,0.087    c0.136,0.084,0.266,0.168,0.389,0.254c1.385,0.927,2.629,2.193,3.634,3.645c0.285,0.414,0.553,0.841,0.797,1.28    s0.464,0.889,0.662,1.347c0.588,1.355,0.965,2.771,1.066,4.157c0.021,0.244,0.032,0.493,0.032,0.75v0.001v15.403l19.816,9.688    c0.705,0.345,1.369,0.521,1.973,0.521c1.54,0,2.459-1.229,2.459-3.287V67.853C93.416,64.384,90.783,60.167,87.666,58.643z"/><path d="M39.225,78.521l21.107-10.319l0.087-0.042c0.606-0.296,1.088-0.634,1.413-0.974c0.296-0.309,0.464-0.619,0.464-0.9    s-0.167-0.592-0.464-0.9c-0.159-0.167-0.356-0.332-0.587-0.493c-0.042-0.027-0.083-0.057-0.125-0.083    c-0.061-0.039-0.124-0.078-0.188-0.117c-0.16-0.097-0.328-0.191-0.512-0.281l-0.087-0.042L39.015,53.946    c-1.529-0.748-3.691-1.176-5.932-1.176s-4.402,0.429-5.932,1.176L5.749,64.411c-0.171,0.084-0.341,0.179-0.509,0.279    c-0.068,0.041-0.134,0.082-0.198,0.123c-0.039,0.024-0.077,0.052-0.116,0.077c-0.664,0.46-1.055,0.963-1.055,1.396    c0,0.59,0.719,1.309,1.877,1.874l21.403,10.464c1.529,0.747,3.691,1.177,5.932,1.177s4.402-0.43,5.932-1.177L39.225,78.521z"/><path d="M64.48,70.468C64.48,70.468,64.48,70.468,64.48,70.468c-0.238-0.079-0.491-0.134-0.771-0.134    c-0.567,0-1.215,0.169-1.877,0.479c-0.032,0.016-0.063,0.026-0.096,0.042L40.333,81.318c-3.116,1.523-5.749,5.741-5.749,9.21    v28.093c0,2.058,0.919,3.287,2.459,3.287c0.594,0,1.276-0.181,1.973-0.521l21.403-10.462c3.117-1.523,5.75-5.741,5.75-9.211    V73.622v-0.001c0-0.001,0-0.002,0-0.004C66.167,71.938,65.545,70.823,64.48,70.468z"/><path d="M25.834,81.318L4.432,70.854c-0.706-0.345-1.37-0.521-1.973-0.521c-1.539,0-2.458,1.229-2.459,3.283    c0,0.002,0,0.003,0,0.004v0.001v28.093c0,1.518,0.504,3.18,1.332,4.695c0.133,0.244,0.274,0.483,0.423,0.719    c1.043,1.645,2.46,3.047,3.994,3.797l21.403,10.462c0.706,0.345,1.37,0.521,1.973,0.521c1.54,0,2.458-1.229,2.458-3.287V90.528    C31.583,87.059,28.951,82.842,25.834,81.318z"/></g></g></svg>