<?xml version="1.0" ?><!DOCTYPE svg  PUBLIC '-//W3C//DTD SVG 1.1//EN'  'http://www.w3.org/Graphics/SVG/1.1/DTD/svg11.dtd'><svg enable-background="new 0 0 455.977 436.066" height="436.066px" id="Layer_1" version="1.1" viewBox="0 0 455.977 436.066" width="455.977px" xml:space="preserve" xmlns="http://www.w3.org/2000/svg" xmlns:xlink="http://www.w3.org/1999/xlink"><g><polygon points="400.977,154.469 331.922,129.176 331.922,148.32 374.852,164.031 227.984,217.781 282.984,272.781    382.977,236.188 382.977,360.172 227.867,416.855 227.867,237.695 176.57,289 55,244.508 55,372.75 227.984,436.066    400.977,372.75 400.977,229.598 455.977,209.469  "/><path d="M317.922,146.414v-113.5L227.992,0l-89.938,32.91v113.504l89.898,32.91L317.922,146.414z M227.953,70.418l75.875-27.754   l0.094,0.035v93.93l-75.969,27.785V70.418z"/><polygon points="124.055,148.316 124.055,129.176 55,154.469 0,209.469 172.984,272.781 227.984,217.781 81.125,164.031  "/><polygon points="352.945,339.672 352.945,356.211 367.914,350.73 367.914,334.195  "/><polygon points="308.469,355.895 308.469,372.43 323.438,366.953 323.438,350.414  "/><polygon points="330.703,347.813 330.703,364.344 345.672,358.867 345.672,342.332  "/></g></svg>