<?xml version="1.0" ?><!DOCTYPE svg  PUBLIC '-//W3C//DTD SVG 1.1//EN'  'http://www.w3.org/Graphics/SVG/1.1/DTD/svg11.dtd'><svg height="64px" id="Image" style="enable-background:new 0 0 64 64;" version="1.1" viewBox="0 0 64 64" width="64px" xml:space="preserve" xmlns="http://www.w3.org/2000/svg" xmlns:xlink="http://www.w3.org/1999/xlink"><g><path d="M55.123,37.17C48.399,42.295,40.418,45,32,45s-16.399-2.705-23.123-7.83   C7.535,37.867,6,39.008,6,39.78c0,2.038,3.836,5.592,10.261,9.506C18.09,50.408,20.192,51,22.34,51h19.32   c2.148,0,4.25-0.592,6.077-1.712C54.164,45.372,58,41.818,58,39.78C58,39.008,56.465,37.867,55.123,37.17z" style="fill:#424242;"/><path d="M54,35.502V33.82c0-5.785-2.589-11.191-7-14.823V27c0,0.552-0.448,1-1,1s-1-0.448-1-1V15h-6v16   c0,0.552-0.448,1-1,1s-1-0.448-1-1V14v-1H27v1v17c0,0.552-0.448,1-1,1s-1-0.448-1-1V15h-6v12c0,0.552-0.448,1-1,1s-1-0.448-1-1   v-8.003c-4.411,3.632-7,9.038-7,14.823v1.683C16.392,40.405,23.986,43,32,43S47.608,40.405,54,35.502z" style="fill:#424242;"/></g></svg>