<?xml version="1.0" ?><!DOCTYPE svg  PUBLIC '-//W3C//DTD SVG 1.1//EN'  'http://www.w3.org/Graphics/SVG/1.1/DTD/svg11.dtd'><svg enable-background="new 0 0 32 32" height="32px" id="Layer_1" version="1.1" viewBox="0 0 32 32" width="32px" xml:space="preserve" xmlns="http://www.w3.org/2000/svg" xmlns:xlink="http://www.w3.org/1999/xlink"><path d="M14.7,14H8.4c-1.1,0-2,0.7-2.2,1.7L6,16.6c-0.1,0.6,0.1,1.3,0.5,1.7C6.8,18.8,7.3,19,7.8,19h6.3c1.1,0,2-1.1,2.2-2l0.2-0.9  c0.1-0.5,0-1-0.3-1.4C15.8,14.2,15.2,14,14.7,14z M14.3,16.6c0,0.1-0.2,0.3-0.3,0.4H8c0,0,0,0,0,0l0.2-0.9c0,0,0.1-0.1,0.2-0.1  l6.1,0L14.3,16.6z"/><path d="M28.9,11c0-0.1,0-0.2,0-0.3C28.4,9.1,26.9,8,25.1,8H25V2c0-0.6-0.4-1-1-1H5C4.4,1,4,1.4,4,2v3c-2.3,0-4,1.5-4,3.5v19.1  c0,1.2,0.6,2.5,1.6,3.4c0.5,0.6,1.2,0.9,2,1c0.2,0,0.3,0,0.5,0c0,0,0,0,0.1,0h0H25h0c2.2,0,4.1-2.1,4.4-4l2.5-13  c0.2-1.1-0.1-2.1-0.7-2.8C30.7,11.5,29.8,11.1,28.9,11z M25.1,10c0.8,0,1.5,0.4,1.8,1H25L25.1,10L25.1,10z M6,3h17v8H7.6  C7,11,6.5,11.1,6,11.3V3z M4,7v5.7c-0.4,0.5-0.7,1.1-0.9,1.8L2,20.6V8.5C2,7.4,3.2,7,4,7z M30,14.6l-2.5,13C27.3,28.8,26.1,30,25,30  h0H4.1c-0.4,0-0.8-0.2-1.1-0.5c-0.3-0.4-0.4-0.9-0.3-1.4l2.5-13.2C5.3,13.8,6.4,13,7.6,13h21c0.5,0,0.9,0.2,1.2,0.5  C30,13.8,30.1,14.2,30,14.6z"/><path d="M9,7h11c0.6,0,1-0.4,1-1s-0.4-1-1-1H9C8.4,5,8,5.4,8,6S8.4,7,9,7z"/><path d="M9,10h11c0.6,0,1-0.4,1-1s-0.4-1-1-1H9C8.4,8,8,8.4,8,9S8.4,10,9,10z"/></svg>